<svg width="72" height="74" viewBox="0 0 72 74" fill="none" xmlns="http://www.w3.org/2000/svg">
    <g filter="url(#filter0_d_12_254)">
        <ellipse cx="32" cy="33" rx="32" ry="33" fill="white"/>
    </g>
    <g filter="url(#filter1_i_12_254)">
        <path d="M31.072 15.3108C31.4079 14.4744 32.5921 14.4744 32.928 15.3108L36.9386 25.2981C37.0816 25.6543 37.4159 25.8972 37.7989 25.9231L48.5366 26.6512C49.436 26.7122 49.8019 27.8384 49.1101 28.4163L40.8511 35.3168C40.5565 35.5629 40.4288 35.9559 40.5225 36.3282L43.1482 46.7654C43.3681 47.6395 42.4101 48.3356 41.6467 47.8563L32.5317 42.1338C32.2066 41.9297 31.7934 41.9297 31.4683 42.1338L22.3533 47.8563C21.5899 48.3356 20.6319 47.6395 20.8518 46.7654L23.4775 36.3282C23.5712 35.9559 23.4435 35.5629 23.1489 35.3168L14.8899 28.4163C14.1981 27.8384 14.564 26.7122 15.4634 26.6512L26.2011 25.9231C26.5841 25.8972 26.9184 25.6543 27.0614 25.2981L31.072 15.3108Z" fill="url(#paint0_linear_12_254)"/>
    </g>
    <defs>
        <filter id="filter0_d_12_254" x="0" y="0" width="72" height="74" filterUnits="userSpaceOnUse" color-interpolation-filters="sRGB">
            <feFlood flood-opacity="0" result="BackgroundImageFix"/>
            <feColorMatrix in="SourceAlpha" type="matrix" values="0 0 0 0 0 0 0 0 0 0 0 0 0 0 0 0 0 0 127 0" result="hardAlpha"/>
            <feOffset dx="4" dy="4"/>
            <feGaussianBlur stdDeviation="2"/>
            <feComposite in2="hardAlpha" operator="out"/>
            <feColorMatrix type="matrix" values="0 0 0 0 0 0 0 0 0 0 0 0 0 0 0 0 0 0 0.25 0"/>
            <feBlend mode="normal" in2="BackgroundImageFix" result="effect1_dropShadow_12_254"/>
            <feBlend mode="normal" in="SourceGraphic" in2="effect1_dropShadow_12_254" result="shape"/>
        </filter>
        <filter id="filter1_i_12_254" x="14.5293" y="14.6835" width="34.9414" height="37.3292" filterUnits="userSpaceOnUse" color-interpolation-filters="sRGB">
            <feFlood flood-opacity="0" result="BackgroundImageFix"/>
            <feBlend mode="normal" in="SourceGraphic" in2="BackgroundImageFix" result="shape"/>
            <feColorMatrix in="SourceAlpha" type="matrix" values="0 0 0 0 0 0 0 0 0 0 0 0 0 0 0 0 0 0 127 0" result="hardAlpha"/>
            <feOffset dy="4"/>
            <feGaussianBlur stdDeviation="2"/>
            <feComposite in2="hardAlpha" operator="arithmetic" k2="-1" k3="1"/>
            <feColorMatrix type="matrix" values="0 0 0 0 0 0 0 0 0 0 0 0 0 0 0 0 0 0 0.25 0"/>
            <feBlend mode="normal" in2="shape" result="effect1_innerShadow_12_254"/>
        </filter>
        <linearGradient id="paint0_linear_12_254" x1="12.6667" y1="18.3333" x2="51.3333" y2="52.3333" gradientUnits="userSpaceOnUse">
            <stop stop-color="#EC77AB"/>
            <stop offset="1" stop-color="#7873F5"/>
        </linearGradient>
    </defs>
</svg>